# xmcd CD database file
#
# Track frame offsets:
#	150
#	24770
#	49227
#	69955
#	95519
#	123296
#	144328
#	174082
#	199650
#	206901
#
# Disc length: 3038 seconds
#
# Revision: 0
# Processed by: cddbd v1.5.2PL0 Copyright (c) Steve Scherf et al.
# Submitted via: CDex 1.51
#
DISCID=800bdc0a
DTITLE=POST IMAGE - 87_2012 2
DYEAR=2016
DGENRE=Jazz
TTITLE0=Gluglu
TTITLE1=Mobile
TTITLE2=Mezcal
TTITLE3=Impulsion
TTITLE4=Naomie
TTITLE5=Rimo
TTITLE6=Bamboche
TTITLE7=The One
TTITLE8=Tropical Road
TTITLE9=Smile
EXTD=YEAR: 2016
EXTT0=
EXTT1=
EXTT2=
EXTT3=
EXTT4=
EXTT5=
EXTT6=
EXTT7=
EXTT8=
EXTT9=
PLAYORDER=
